<svg width="24" height="24" viewBox="0 0 24 24" fill="none" xmlns="http://www.w3.org/2000/svg">
<rect opacity="0.01" x="2" y="2" width="20" height="20" fill="currentColor"/>
<path fill-rule="evenodd" clip-rule="evenodd" d="M12 6.00001C15.7522 5.98754 19.1801 8.12509 20.82 11.5C20.24 12.6948 19.4195 13.757 18.41 14.62L19.82 16.03C21.21 14.8 22.31 13.26 23 11.5C21.27 7.11001 17 4.00001 12 4.00001C10.73 4.00001 9.51 4.20001 8.36 4.57001L10.01 6.22001C10.66 6.09001 11.32 6.00001 12 6.00001ZM10.93 7.14001L13 9.21001C13.57 9.46001 14.03 9.92001 14.28 10.49L16.35 12.56C16.43 12.22 16.49 11.86 16.49 11.49C16.5 9.01001 14.48 7.00001 12 7.00001C11.63 7.00001 11.28 7.05001 10.93 7.14001ZM2.01 3.87001L4.69 6.55001C3.04032 7.84117 1.76625 9.5503 1 11.5C2.73 15.89 7 19 12 19C13.52 19 14.98 18.71 16.32 18.18L19.74 21.6L21.15 20.19L3.42 2.45001L2.01 3.87001ZM9.51 11.37L12.12 13.98C12.08 13.99 12.04 14 12 14C10.6193 14 9.5 12.8807 9.5 11.5C9.5 11.45 9.51 11.42 9.51 11.37ZM6.11 7.97001L7.86 9.72001C7.62291 10.2835 7.50052 10.8887 7.5 11.5C7.50264 13.0112 8.26249 14.4205 9.52359 15.2532C10.7847 16.0859 12.3792 16.2312 13.77 15.64L14.75 16.62C13.87 16.86 12.95 17 12 17C8.24777 17.0125 4.81991 14.8749 3.18 11.5C3.88 10.07 4.9 8.89001 6.11 7.97001Z" fill="currentColor"/>
</svg>
