<svg width="24" height="24" viewBox="0 0 24 24" fill="none" xmlns="http://www.w3.org/2000/svg">
<rect opacity="0.01" x="2" y="2" width="20" height="20" fill="currentColor"/>
<path fill-rule="evenodd" clip-rule="evenodd" d="M12 6C15.7522 5.98752 19.1801 8.12508 20.82 11.5C19.1801 14.8749 15.7522 17.0125 12 17C8.24777 17.0125 4.81991 14.8749 3.18 11.5C4.81991 8.12508 8.24777 5.98752 12 6ZM12 4C7 4 2.73 7.11 1 11.5C2.73 15.89 7 19 12 19C17 19 21.27 15.89 23 11.5C21.27 7.11 17 4 12 4ZM12 9C13.3806 9.00013 14.4998 10.1194 14.4998 11.5C14.4998 12.8806 13.3806 13.9999 12 14C10.6194 13.9999 9.50024 12.8806 9.50024 11.5C9.50024 10.1194 10.6194 9.00013 12 9ZM12 7C9.52 7 7.5 9.02 7.5 11.5C7.5 13.98 9.52 16 12 16C14.48 16 16.5 13.98 16.5 11.5C16.5 9.02 14.48 7 12 7Z" fill="currentColor"/>
</svg>
